<?xml version="1.0" encoding="utf-8"?>
<!-- Svg Vector Icons : http://www.onlinewebfonts.com/icon -->
<!DOCTYPE svg PUBLIC "-//W3C//DTD SVG 1.1//EN" "http://www.w3.org/Graphics/SVG/1.1/DTD/svg11.dtd">
<svg version="1.1" xmlns="http://www.w3.org/2000/svg" xmlns:xlink="http://www.w3.org/1999/xlink" x="0px" y="0px" viewBox="0 0 1000 1000" enable-background="new 0 0 1000 1000" xml:space="preserve">
<metadata> Svg Vector Icons : http://www.onlinewebfonts.com/icon </metadata>
<g><g><path d="M978.9,333.2c-19.9,0-39.8,0-60.2,0c-5.8,0-12.1-5.5-12.1-11.3c0-22,0-43.3,0-65.4c0-5.7-3-6.7-8.7-6.7c-74.6,0-148.3,0-222.9,0c-5.8,0-8.1-8.4-8.1-14.1c0-20.3,0-39.9,0-59.4c0-5.8-7-9.9-12.8-9.9c-103.5,0-205.9,0-309.4,0c-5.8,0-11.5,4.1-11.5,9.9c0,19.9,0,39.6,0,59.9c0,5.8-3.6,13.6-9.4,13.6c-74.7,0-148.5,0-223.4,0c-5.8,0-7.1,1.5-7.1,7.2c0,22.2,0,43.7,0,65.6c0,5.8-8,10.6-13.8,10.6c-19.9,0-39.2,0-58.5,0c-5.8,0-11.1,4.5-11.1,10.3c0,77.4,0,154.2,0,232c0,5.8,5.4,7.9,11.1,7.9c47,0,93.2,0,139.8,0c5.8,0,5.5,7.2,5.5,12.9c0,20.4,0,40.2,0,60.6c0,5.8,0.3,9.9-5.5,9.9c-19.8,0-39.3,0-58.9,0c-5.8,0-8.6,5.2-8.6,11c0,22.1,0,43.6,0,65.6c0,5.8,2.8,6.9,8.6,6.9c20,0,39.7,0,59.8,0c5.8,0,15,8.2,15,14c0,20,0,39.7,0,59.5c0,5.8,0.1,9.9,5.9,9.9c47.4,0,94,0,140.4,0c5.8,0,10-4.2,10-9.9c0-20.2,0-40.2,0-60.7c0-5.8-4.3-12.8-10-12.8c-19.9,0-39.3,0-58.5,0c-5.8,0-14.8-2.3-14.8-8c0-21.7,0-42.9,0-64.2c0-5.8,6.9-10.4,12.6-10.4c49.4,0,99.1,0,147.7,0.1l3.7-0.1c1.8-0.1,2.9-1.1,3-2.4c0.1-1.3-0.2-2.3-0.2-2.3c0-24.6,0-44.5,0-66.2c0-5.8,5.9-13.3,11.6-13.3c47.9,0,95.9,0,144.1,0c5.8,0,11,7.6,11,13.3c0,19.8,0,39.7,0,60.2c0,0-1.4,9.9,10.7,9.9c47.5,0,94,0,140.4,0c5.8,0,5.3,6.2,5.3,12c0,21.5,0,42.7,0,64.4c0,5.8,0.5,7-5.3,7c-19.8,0-39.3,0-58.8,0c-5.8,0-8.9,8.1-8.9,13.8c0,20.1,0,39.7,0,59.4c0,5.8,3.2,10.2,8.9,10.2c47.3,0,94.2,0,141.9,0c5.8,0,5.6-4.4,5.6-10.2c0-20.1,0-39.8,0-60c0-5.8,9.5-13.3,15.2-13.3c20.1,0,39.6,0,59,0c5.8,0,9.1-1.8,9.1-7.6c0-21.8,0-43.1,0-65c0-5.8-3.3-10.8-9.1-10.8c-19.8,0-39.3,0-59,0c-5.8,0-15.3-4.3-15.3-10c0-20.3,0-40.1,0-60.4c0-5.8,9.6-13,15.3-13c46.9,0,93.4,0,140.3,0c5.8,0,11.1-2.1,11.1-7.9c0-77.8,0-154.8,0-232.8C990,337,984.6,333.2,978.9,333.2z M416.6,488.8c0,5.8-6.1,11.2-11.9,11.2c-46.5,0-93,0-139.9,0c-5.8,0-15-5.4-15-11.2c0-19.6,0-39.1,0-59.3c0-5.8,9.2-12.9,15-12.9c46.7,0,93,0,139.9,0c5.8,0,11.9,7.2,11.9,12.9C416.6,449.2,416.6,468.8,416.6,488.8z M750.2,489c0,5.8-9.8,11-15.5,11c-46.6,0-92.8,0-139.6,0c-5.8,0-11.6-5.2-11.6-11c0-19.7,0-39.4,0-59.4c0-5.8,5.9-13,11.7-13c46.4,0,92.6,0,139.6,0c5.8,0,15.5,7.3,15.5,13C750.2,449.6,750.2,469.2,750.2,489z"/><path d="M576.2,667.3c-2.2,0-99.1-0.1-145.4,0.1l-6.6,0c-6.9,0-6.6,4.7-6.6,10.4c0,20.9,0,42.1,0,63.2c0,5.8,4.7,9.2,10.4,9.2c48,0,96.1,0,145.2,0c5.8,0,10.2-2.2,10.2-7.9c0-21.3,0-42.3,0-63.5C583.4,665.7,576.2,667.3,576.2,667.3z"/></g><g></g><g></g><g></g><g></g><g></g><g></g><g></g><g></g><g></g><g></g><g></g><g></g><g></g><g></g><g></g></g>
</svg>