<?xml version="1.0" encoding="utf-8"?>
<!-- Svg Vector Icons : http://www.onlinewebfonts.com/icon -->
<!DOCTYPE svg PUBLIC "-//W3C//DTD SVG 1.1//EN" "http://www.w3.org/Graphics/SVG/1.1/DTD/svg11.dtd">
<svg version="1.1" xmlns="http://www.w3.org/2000/svg" xmlns:xlink="http://www.w3.org/1999/xlink" x="0px" y="0px" viewBox="0 0 1000 1000" enable-background="new 0 0 1000 1000" xml:space="preserve">
<metadata> Svg Vector Icons : http://www.onlinewebfonts.com/icon </metadata>
<g><g><path d="M608.9,614.3H391.1c-6,0-10.9,4.9-10.9,10.9v108.9c0,6,4.9,10.9,10.9,10.9h217.8c6,0,10.9-4.9,10.9-10.9V625.2C619.8,619.2,614.9,614.3,608.9,614.3z"/><path d="M979.1,265.9H870.2c-6,0-10.9-4.9-10.9-10.9v-98c0-6-4.9-10.9-10.9-10.9h-87.1c-6,0-10.9-4.9-10.9-10.9V26.3c0-6-4.9-10.9-10.9-10.9H630.7c-6,0-10.9,4.9-10.9,10.9v108.9c0,6-4.9,10.9-10.9,10.9H391.1c-6,0-10.9-4.9-10.9-10.9V26.3c0-6-4.9-10.9-10.9-10.9H260.4c-6,0-10.9,4.9-10.9,10.9v108.9c0,6-4.9,10.9-10.9,10.9h-87.1c-6,0-10.9,4.9-10.9,10.9v98c0,6-4.9,10.9-10.9,10.9H20.9c-6,0-10.9,4.9-10.9,10.9v579.3v117.6c0,6,4.9,10.9,10.9,10.9h116.8h122.8c6,0,10.9-4.9,10.9-10.9V864.8c0-6-4.9-10.9-10.9-10.9H151.6c-6,0-10.9-4.9-10.9-10.9V516.3c0-6,4.9-10.9,10.9-10.9h87.1c6,0,10.9,4.9,10.9,10.9v87.1c0,6,4.9,10.9,10.9,10.9h108.9c6,0,10.9-4.9,10.9-10.9v-87.1c0-6,4.9-10.9,10.9-10.9h217.8c6,0,10.9,4.9,10.9,10.9v87.1c0,6,4.9,10.9,10.9,10.9h108.9c6,0,10.9-4.9,10.9-10.9v-87.1c0-6,4.9-10.9,10.9-10.9h87.1c6,0,10.9,4.9,10.9,10.9V843c0,6-4.9,10.9-10.9,10.9H739.6c-6,0-10.9,4.9-10.9,10.9v108.9c0,6,4.9,10.9,10.9,10.9h122.8h116.8c6,0,10.9-4.9,10.9-10.9V856.1V276.8C990,270.8,985.1,265.9,979.1,265.9z M380.2,385.7c0,6-4.9,10.9-10.9,10.9H260.4c-6,0-10.9-4.9-10.9-10.9V276.8c0-6,4.9-10.9,10.9-10.9h108.9c6,0,10.9,4.9,10.9,10.9V385.7z M750.4,385.7c0,6-4.9,10.9-10.9,10.9H630.7c-6,0-10.9-4.9-10.9-10.9V276.8c0-6,4.9-10.9,10.9-10.9h108.9c6,0,10.9,4.9,10.9,10.9V385.7z"/></g><g></g><g></g><g></g><g></g><g></g><g></g><g></g><g></g><g></g><g></g><g></g><g></g><g></g><g></g><g></g></g>
</svg>