<?xml version="1.0" encoding="utf-8"?>
<!-- Svg Vector Icons : http://www.onlinewebfonts.com/icon -->
<!DOCTYPE svg PUBLIC "-//W3C//DTD SVG 1.1//EN" "http://www.w3.org/Graphics/SVG/1.1/DTD/svg11.dtd">
<svg version="1.1" xmlns="http://www.w3.org/2000/svg" xmlns:xlink="http://www.w3.org/1999/xlink" x="0px" y="0px" viewBox="0 0 1000 1000" enable-background="new 0 0 1000 1000" xml:space="preserve">
<metadata> Svg Vector Icons : http://www.onlinewebfonts.com/icon </metadata>
<g><g><path d="M817.2,752.1c0,0.1,0,0.1,0,0.2l0.2-0.2C817.3,752.1,817.2,752.1,817.2,752.1z"/><path d="M817.3,752.1c0,0-0.2,0.1-0.2,0.1c0.1,0,0.1,0,0.2,0C817.3,752.2,817.3,752.1,817.3,752.1z"/><path d="M182.6,752.1l0.2,0.2c0-0.1,0-0.1,0-0.2C182.8,752.1,182.7,752.1,182.6,752.1z"/><path d="M816.5,163.1c-30.6,0-61.2,0-91.9,0c0,30.6,0,51,0,81.7c30.6,0,61.3,0,91.9,0C816.5,214.2,816.5,193.8,816.5,163.1z"/><path d="M898.1,418.3c-20.4,0-51,0-81.7,0c0-30.6,0-61.2,0-91.9c-30.6,0-61.2,0-91.9,0c0-20.4,0-51,0-81.7c-30.6,0-61.3,0-91.9,0c0,30.6,0,61.3,0,81.7c-40.8,0-88.4,0-132.7,0c-40.8,0-91.9,0-132.7,0c0-20.4,0-51,0-81.7c-30.6,0-61.3,0-91.9,0c0,30.6,0,61.3,0,81.7c-30.6,0-61.3,0-91.9,0c0,30.6,0,61.3,0,91.9c-30.6,0-61.3,0-81.7,0c0-61.2,0-112.3,0-173.5c-30.6,0-61.3,0-91.9,0c0,112.3,0,224.6,0,336.9c30.6,0,51,0,81.7,0c0,30.6,0,61.2,0,91.9c30.6,0,61.3,0,91.9,0c0,18.7,0,49.2,0,79.1c-23.3,0.3-45.3,0.3-68.6,0.6c-4.9,0.1-13.1,0-13.1,0c0,28,0,53,0,83.7c20.4,0,52.8,0,80.8,0c0-29.7,1.1-54.9,1.2-81.7h0c30.5,0,61,0,91.5,0c0-30.6,0-61.3,0-81.7c81.7,0,153.1,0,224.6,0c73.9,0,142.9,0,224.6,0c0,20.4,0,51,0,81.7c30.5,0,61,0,91.5,0c0,0,0,0,0,0c0.1,26.8,1.2,52,1.2,81.7c28,0,60.4,0,80.8,0c0-30.6,0-55.6,0-83.7c0,0-8.2,0-13.1,0c-23.3-0.3-45.3-0.3-68.6-0.6c0-29.8,0-60.3,0-79.1c30.6,0,61.3,0,91.9,0c0-30.6,0-61.3,0-91.9c30.6,0,51,0,81.7,0c0-112.3,0-224.6,0-336.9c-30.6,0-61.3,0-91.9,0C898.1,306,898.1,357.1,898.1,418.3z M367.3,500c0,15.7,0,33.4,0,51c-30.6,0-61.3,0-91.9,0c0-17.7,0-35.3,0-51c0-10.4,0-20.7,0-30.6c30.6,0,61.2,0,91.9,0C367.3,479.3,367.3,489.6,367.3,500z M724.6,500c0,15.7,0,33.4,0,51c-30.6,0-61.3,0-91.9,0c0-17.7,0-35.3,0-51c0-10.4,0-20.7,0-30.6c30.6,0,61.2,0,91.9,0C724.6,479.3,724.6,489.6,724.6,500z"/><path d="M183.5,163.1c0,30.6,0,51,0,81.7c30.6,0,61.2,0,91.9,0c0-30.6,0-51,0-81.7C244.8,163.1,214.2,163.1,183.5,163.1z"/><path d="M182.7,752.2c0.1,0,0.1,0,0.2,0c0,0-0.2-0.2-0.2-0.1C182.7,752.1,182.7,752.2,182.7,752.2z"/></g><g></g><g></g><g></g><g></g><g></g><g></g><g></g><g></g><g></g><g></g><g></g><g></g><g></g><g></g><g></g></g>
</svg>