<svg id="visual" viewBox="0 0 900 600" width="900" height="600" xmlns="http://www.w3.org/2000/svg" xmlns:xlink="http://www.w3.org/1999/xlink" version="1.1"><path d="M0 190L39 190L39 128L78 128L78 120L117 120L117 142L157 142L157 166L196 166L196 79L235 79L235 168L274 168L274 27L313 27L313 126L352 126L352 109L391 109L391 182L430 182L430 166L470 166L470 178L509 178L509 56L548 56L548 183L587 183L587 53L626 53L626 131L665 131L665 64L704 64L704 148L743 148L743 163L783 163L783 116L822 116L822 165L861 165L861 145L900 145L900 57L900 601L900 601L861 601L861 601L822 601L822 601L783 601L783 601L743 601L743 601L704 601L704 601L665 601L665 601L626 601L626 601L587 601L587 601L548 601L548 601L509 601L509 601L470 601L470 601L430 601L430 601L391 601L391 601L352 601L352 601L313 601L313 601L274 601L274 601L235 601L235 601L196 601L196 601L157 601L157 601L117 601L117 601L78 601L78 601L39 601L39 601L0 601Z" fill="#12d347"></path><path d="M0 163L39 163L39 202L78 202L78 163L117 163L117 204L157 204L157 166L196 166L196 197L235 197L235 253L274 253L274 83L313 83L313 154L352 154L352 143L391 143L391 220L430 220L430 259L470 259L470 154L509 154L509 235L548 235L548 167L587 167L587 76L626 76L626 215L665 215L665 192L704 192L704 88L743 88L743 137L783 137L783 248L822 248L822 116L861 116L861 170L900 170L900 206L900 601L900 601L861 601L861 601L822 601L822 601L783 601L783 601L743 601L743 601L704 601L704 601L665 601L665 601L626 601L626 601L587 601L587 601L548 601L548 601L509 601L509 601L470 601L470 601L430 601L430 601L391 601L391 601L352 601L352 601L313 601L313 601L274 601L274 601L235 601L235 601L196 601L196 601L157 601L157 601L117 601L117 601L78 601L78 601L39 601L39 601L0 601Z" fill="#12ca40"></path><path d="M0 143L39 143L39 280L78 280L78 159L117 159L117 135L157 135L157 242L196 242L196 186L235 186L235 296L274 296L274 275L313 275L313 178L352 178L352 179L391 179L391 141L430 141L430 151L470 151L470 276L509 276L509 184L548 184L548 240L587 240L587 123L626 123L626 170L665 170L665 183L704 183L704 237L743 237L743 211L783 211L783 245L822 245L822 253L861 253L861 227L900 227L900 276L900 601L900 601L861 601L861 601L822 601L822 601L783 601L783 601L743 601L743 601L704 601L704 601L665 601L665 601L626 601L626 601L587 601L587 601L548 601L548 601L509 601L509 601L470 601L470 601L430 601L430 601L391 601L391 601L352 601L352 601L313 601L313 601L274 601L274 601L235 601L235 601L196 601L196 601L157 601L157 601L117 601L117 601L78 601L78 601L39 601L39 601L0 601Z" fill="#12c23a"></path><path d="M0 224L39 224L39 273L78 273L78 197L117 197L117 304L157 304L157 183L196 183L196 276L235 276L235 255L274 255L274 291L313 291L313 305L352 305L352 331L391 331L391 324L430 324L430 267L470 267L470 310L509 310L509 297L548 297L548 227L587 227L587 200L626 200L626 176L665 176L665 220L704 220L704 226L743 226L743 242L783 242L783 197L822 197L822 199L861 199L861 260L900 260L900 229L900 601L900 601L861 601L861 601L822 601L822 601L783 601L783 601L743 601L743 601L704 601L704 601L665 601L665 601L626 601L626 601L587 601L587 601L548 601L548 601L509 601L509 601L470 601L470 601L430 601L430 601L391 601L391 601L352 601L352 601L313 601L313 601L274 601L274 601L235 601L235 601L196 601L196 601L157 601L157 601L117 601L117 601L78 601L78 601L39 601L39 601L0 601Z" fill="#11b933"></path><path d="M0 242L39 242L39 258L78 258L78 231L117 231L117 231L157 231L157 328L196 328L196 239L235 239L235 283L274 283L274 265L313 265L313 262L352 262L352 341L391 341L391 355L430 355L430 341L470 341L470 323L509 323L509 228L548 228L548 326L587 326L587 256L626 256L626 343L665 343L665 275L704 275L704 273L743 273L743 297L783 297L783 291L822 291L822 271L861 271L861 357L900 357L900 327L900 601L900 601L861 601L861 601L822 601L822 601L783 601L783 601L743 601L743 601L704 601L704 601L665 601L665 601L626 601L626 601L587 601L587 601L548 601L548 601L509 601L509 601L470 601L470 601L430 601L430 601L391 601L391 601L352 601L352 601L313 601L313 601L274 601L274 601L235 601L235 601L196 601L196 601L157 601L157 601L117 601L117 601L78 601L78 601L39 601L39 601L0 601Z" fill="#10b02d"></path><path d="M0 355L39 355L39 300L78 300L78 392L117 392L117 403L157 403L157 352L196 352L196 307L235 307L235 334L274 334L274 290L313 290L313 321L352 321L352 395L391 395L391 270L430 270L430 384L470 384L470 368L509 368L509 281L548 281L548 398L587 398L587 319L626 319L626 297L665 297L665 312L704 312L704 380L743 380L743 364L783 364L783 382L822 382L822 269L861 269L861 275L900 275L900 269L900 601L900 601L861 601L861 601L822 601L822 601L783 601L783 601L743 601L743 601L704 601L704 601L665 601L665 601L626 601L626 601L587 601L587 601L548 601L548 601L509 601L509 601L470 601L470 601L430 601L430 601L391 601L391 601L352 601L352 601L313 601L313 601L274 601L274 601L235 601L235 601L196 601L196 601L157 601L157 601L117 601L117 601L78 601L78 601L39 601L39 601L0 601Z" fill="#0ea826"></path><path d="M0 375L39 375L39 436L78 436L78 394L117 394L117 425L157 425L157 413L196 413L196 420L235 420L235 360L274 360L274 374L313 374L313 408L352 408L352 414L391 414L391 372L430 372L430 342L470 342L470 420L509 420L509 425L548 425L548 378L587 378L587 358L626 358L626 377L665 377L665 373L704 373L704 407L743 407L743 332L783 332L783 432L822 432L822 390L861 390L861 332L900 332L900 422L900 601L900 601L861 601L861 601L822 601L822 601L783 601L783 601L743 601L743 601L704 601L704 601L665 601L665 601L626 601L626 601L587 601L587 601L548 601L548 601L509 601L509 601L470 601L470 601L430 601L430 601L391 601L391 601L352 601L352 601L313 601L313 601L274 601L274 601L235 601L235 601L196 601L196 601L157 601L157 601L117 601L117 601L78 601L78 601L39 601L39 601L0 601Z" fill="#0ca01f"></path><path d="M0 462L39 462L39 447L78 447L78 454L117 454L117 438L157 438L157 426L196 426L196 371L235 371L235 432L274 432L274 368L313 368L313 397L352 397L352 434L391 434L391 387L430 387L430 453L470 453L470 451L509 451L509 469L548 469L548 386L587 386L587 387L626 387L626 407L665 407L665 364L704 364L704 418L743 418L743 384L783 384L783 424L822 424L822 459L861 459L861 457L900 457L900 407L900 601L900 601L861 601L861 601L822 601L822 601L783 601L783 601L743 601L743 601L704 601L704 601L665 601L665 601L626 601L626 601L587 601L587 601L548 601L548 601L509 601L509 601L470 601L470 601L430 601L430 601L391 601L391 601L352 601L352 601L313 601L313 601L274 601L274 601L235 601L235 601L196 601L196 601L157 601L157 601L117 601L117 601L78 601L78 601L39 601L39 601L0 601Z" fill="#099819"></path><path d="M0 511L39 511L39 478L78 478L78 492L117 492L117 459L157 459L157 493L196 493L196 439L235 439L235 428L274 428L274 487L313 487L313 434L352 434L352 507L391 507L391 424L430 424L430 418L470 418L470 482L509 482L509 418L548 418L548 417L587 417L587 415L626 415L626 458L665 458L665 472L704 472L704 472L743 472L743 438L783 438L783 476L822 476L822 510L861 510L861 506L900 506L900 442L900 601L900 601L861 601L861 601L822 601L822 601L783 601L783 601L743 601L743 601L704 601L704 601L665 601L665 601L626 601L626 601L587 601L587 601L548 601L548 601L509 601L509 601L470 601L470 601L430 601L430 601L391 601L391 601L352 601L352 601L313 601L313 601L274 601L274 601L235 601L235 601L196 601L196 601L157 601L157 601L117 601L117 601L78 601L78 601L39 601L39 601L0 601Z" fill="#069011"></path><path d="M0 546L39 546L39 506L78 506L78 490L117 490L117 468L157 468L157 491L196 491L196 502L235 502L235 516L274 516L274 491L313 491L313 483L352 483L352 484L391 484L391 535L430 535L430 517L470 517L470 490L509 490L509 487L548 487L548 489L587 489L587 549L626 549L626 479L665 479L665 482L704 482L704 502L743 502L743 482L783 482L783 536L822 536L822 461L861 461L861 546L900 546L900 466L900 601L900 601L861 601L861 601L822 601L822 601L783 601L783 601L743 601L743 601L704 601L704 601L665 601L665 601L626 601L626 601L587 601L587 601L548 601L548 601L509 601L509 601L470 601L470 601L430 601L430 601L391 601L391 601L352 601L352 601L313 601L313 601L274 601L274 601L235 601L235 601L196 601L196 601L157 601L157 601L117 601L117 601L78 601L78 601L39 601L39 601L0 601Z" fill="#038808"></path><path d="M0 564L39 564L39 514L78 514L78 536L117 536L117 538L157 538L157 538L196 538L196 541L235 541L235 515L274 515L274 556L313 556L313 552L352 552L352 537L391 537L391 523L430 523L430 541L470 541L470 587L509 587L509 549L548 549L548 554L587 554L587 545L626 545L626 536L665 536L665 547L704 547L704 568L743 568L743 557L783 557L783 524L822 524L822 515L861 515L861 529L900 529L900 518L900 601L900 601L861 601L861 601L822 601L822 601L783 601L783 601L743 601L743 601L704 601L704 601L665 601L665 601L626 601L626 601L587 601L587 601L548 601L548 601L509 601L509 601L470 601L470 601L430 601L430 601L391 601L391 601L352 601L352 601L313 601L313 601L274 601L274 601L235 601L235 601L196 601L196 601L157 601L157 601L117 601L117 601L78 601L78 601L39 601L39 601L0 601Z" fill="#008000"></path></svg>